<mxfile host="app.diagrams.net" modified="2023-11-06T08:14:27.441Z" agent="Mozilla/5.0 (Windows NT 10.0; Win64; x64) AppleWebKit/537.36 (KHTML, like Gecko) Chrome/118.0.0.0 Safari/537.36" etag="YK8VlauIa3DXhjsmM-l0" version="22.0.8" type="github">
  <diagram id="ZzDrxhDmUvbqkIChXwHI" name="Trang-4">
    <mxGraphModel dx="690" dy="335" grid="1" gridSize="10" guides="1" tooltips="1" connect="1" arrows="1" fold="1" page="1" pageScale="1" pageWidth="827" pageHeight="1169" math="0" shadow="0">
      <root>
        <mxCell id="0" />
        <mxCell id="1" parent="0" />
        <mxCell id="eFwFBlM1vYyjbtdmFEcN-1" value="" style="ellipse;whiteSpace=wrap;html=1;" vertex="1" parent="1">
          <mxGeometry x="330" y="650" width="120" height="80" as="geometry" />
        </mxCell>
        <mxCell id="eFwFBlM1vYyjbtdmFEcN-2" value="Start" style="text;html=1;strokeColor=none;fillColor=none;align=center;verticalAlign=middle;whiteSpace=wrap;rounded=0;" vertex="1" parent="1">
          <mxGeometry x="360" y="675" width="60" height="30" as="geometry" />
        </mxCell>
        <mxCell id="eFwFBlM1vYyjbtdmFEcN-3" value="" style="endArrow=classic;html=1;rounded=0;" edge="1" parent="1">
          <mxGeometry width="50" height="50" relative="1" as="geometry">
            <mxPoint x="390" y="730" as="sourcePoint" />
            <mxPoint x="390" y="790" as="targetPoint" />
          </mxGeometry>
        </mxCell>
        <mxCell id="eFwFBlM1vYyjbtdmFEcN-4" value="" style="shape=parallelogram;perimeter=parallelogramPerimeter;whiteSpace=wrap;html=1;fixedSize=1;" vertex="1" parent="1">
          <mxGeometry x="330" y="790" width="120" height="60" as="geometry" />
        </mxCell>
        <mxCell id="eFwFBlM1vYyjbtdmFEcN-5" value="Nhap a,b" style="text;html=1;strokeColor=none;fillColor=none;align=center;verticalAlign=middle;whiteSpace=wrap;rounded=0;" vertex="1" parent="1">
          <mxGeometry x="360" y="805" width="60" height="30" as="geometry" />
        </mxCell>
        <mxCell id="eFwFBlM1vYyjbtdmFEcN-6" value="" style="endArrow=classic;html=1;rounded=0;exitX=0.5;exitY=1;exitDx=0;exitDy=0;" edge="1" parent="1" source="eFwFBlM1vYyjbtdmFEcN-4">
          <mxGeometry width="50" height="50" relative="1" as="geometry">
            <mxPoint x="390" y="860" as="sourcePoint" />
            <mxPoint x="390" y="920" as="targetPoint" />
          </mxGeometry>
        </mxCell>
        <mxCell id="eFwFBlM1vYyjbtdmFEcN-7" value="" style="rounded=0;whiteSpace=wrap;html=1;" vertex="1" parent="1">
          <mxGeometry x="330" y="920" width="120" height="60" as="geometry" />
        </mxCell>
        <mxCell id="eFwFBlM1vYyjbtdmFEcN-8" value="c :=a&lt;br&gt;d :=b" style="text;html=1;strokeColor=none;fillColor=none;align=center;verticalAlign=middle;whiteSpace=wrap;rounded=0;" vertex="1" parent="1">
          <mxGeometry x="350" y="935" width="60" height="30" as="geometry" />
        </mxCell>
        <mxCell id="eFwFBlM1vYyjbtdmFEcN-9" value="" style="endArrow=classic;html=1;rounded=0;exitX=0.5;exitY=1;exitDx=0;exitDy=0;" edge="1" parent="1" source="eFwFBlM1vYyjbtdmFEcN-7">
          <mxGeometry width="50" height="50" relative="1" as="geometry">
            <mxPoint x="350" y="1050" as="sourcePoint" />
            <mxPoint x="390" y="1040" as="targetPoint" />
          </mxGeometry>
        </mxCell>
        <mxCell id="eFwFBlM1vYyjbtdmFEcN-10" value="" style="rhombus;whiteSpace=wrap;html=1;" vertex="1" parent="1">
          <mxGeometry x="350" y="1040" width="80" height="80" as="geometry" />
        </mxCell>
        <mxCell id="eFwFBlM1vYyjbtdmFEcN-12" value="" style="endArrow=classic;html=1;rounded=0;exitX=0.5;exitY=1;exitDx=0;exitDy=0;" edge="1" parent="1" source="eFwFBlM1vYyjbtdmFEcN-10">
          <mxGeometry width="50" height="50" relative="1" as="geometry">
            <mxPoint x="370" y="1170" as="sourcePoint" />
            <mxPoint x="390" y="1180" as="targetPoint" />
          </mxGeometry>
        </mxCell>
        <mxCell id="eFwFBlM1vYyjbtdmFEcN-13" value="" style="rhombus;whiteSpace=wrap;html=1;" vertex="1" parent="1">
          <mxGeometry x="350" y="1180" width="80" height="80" as="geometry" />
        </mxCell>
        <mxCell id="eFwFBlM1vYyjbtdmFEcN-14" value="" style="endArrow=classic;html=1;rounded=0;exitX=0.5;exitY=1;exitDx=0;exitDy=0;" edge="1" parent="1" source="eFwFBlM1vYyjbtdmFEcN-13">
          <mxGeometry width="50" height="50" relative="1" as="geometry">
            <mxPoint x="380" y="1340" as="sourcePoint" />
            <mxPoint x="390" y="1310" as="targetPoint" />
          </mxGeometry>
        </mxCell>
        <mxCell id="eFwFBlM1vYyjbtdmFEcN-15" value="" style="rounded=0;whiteSpace=wrap;html=1;" vertex="1" parent="1">
          <mxGeometry x="330" y="1310" width="120" height="60" as="geometry" />
        </mxCell>
        <mxCell id="eFwFBlM1vYyjbtdmFEcN-16" value="b :=b - a" style="text;html=1;strokeColor=none;fillColor=none;align=center;verticalAlign=middle;whiteSpace=wrap;rounded=0;" vertex="1" parent="1">
          <mxGeometry x="360" y="1325" width="60" height="30" as="geometry" />
        </mxCell>
        <mxCell id="eFwFBlM1vYyjbtdmFEcN-17" value="" style="endArrow=classic;html=1;rounded=0;entryX=0;entryY=0.483;entryDx=0;entryDy=0;entryPerimeter=0;" edge="1" parent="1" target="eFwFBlM1vYyjbtdmFEcN-19">
          <mxGeometry width="50" height="50" relative="1" as="geometry">
            <mxPoint x="430" y="1078.75" as="sourcePoint" />
            <mxPoint x="490" y="1079" as="targetPoint" />
          </mxGeometry>
        </mxCell>
        <mxCell id="eFwFBlM1vYyjbtdmFEcN-18" value="" style="endArrow=classic;html=1;rounded=0;" edge="1" parent="1">
          <mxGeometry width="50" height="50" relative="1" as="geometry">
            <mxPoint x="430" y="1220" as="sourcePoint" />
            <mxPoint x="500" y="1220" as="targetPoint" />
          </mxGeometry>
        </mxCell>
        <mxCell id="eFwFBlM1vYyjbtdmFEcN-19" value="" style="rounded=0;whiteSpace=wrap;html=1;" vertex="1" parent="1">
          <mxGeometry x="500" y="1050" width="120" height="60" as="geometry" />
        </mxCell>
        <mxCell id="eFwFBlM1vYyjbtdmFEcN-20" value="" style="rounded=0;whiteSpace=wrap;html=1;" vertex="1" parent="1">
          <mxGeometry x="500" y="1190" width="120" height="60" as="geometry" />
        </mxCell>
        <mxCell id="eFwFBlM1vYyjbtdmFEcN-22" value="True" style="text;html=1;strokeColor=none;fillColor=none;align=center;verticalAlign=middle;whiteSpace=wrap;rounded=0;" vertex="1" parent="1">
          <mxGeometry x="430" y="1200" width="60" height="30" as="geometry" />
        </mxCell>
        <mxCell id="eFwFBlM1vYyjbtdmFEcN-23" value="" style="endArrow=classic;html=1;rounded=0;" edge="1" parent="1">
          <mxGeometry width="50" height="50" relative="1" as="geometry">
            <mxPoint x="430" y="1080" as="sourcePoint" />
            <mxPoint x="430" y="1080" as="targetPoint" />
          </mxGeometry>
        </mxCell>
        <mxCell id="eFwFBlM1vYyjbtdmFEcN-24" value="True" style="text;html=1;strokeColor=none;fillColor=none;align=center;verticalAlign=middle;whiteSpace=wrap;rounded=0;" vertex="1" parent="1">
          <mxGeometry x="430" y="1050" width="60" height="30" as="geometry" />
        </mxCell>
        <mxCell id="eFwFBlM1vYyjbtdmFEcN-25" value="UCLN :=a" style="text;html=1;strokeColor=none;fillColor=none;align=center;verticalAlign=middle;whiteSpace=wrap;rounded=0;" vertex="1" parent="1">
          <mxGeometry x="520" y="1065" width="60" height="30" as="geometry" />
        </mxCell>
        <mxCell id="eFwFBlM1vYyjbtdmFEcN-26" value="a :=a - b" style="text;html=1;strokeColor=none;fillColor=none;align=center;verticalAlign=middle;whiteSpace=wrap;rounded=0;" vertex="1" parent="1">
          <mxGeometry x="520" y="1205" width="60" height="30" as="geometry" />
        </mxCell>
        <mxCell id="eFwFBlM1vYyjbtdmFEcN-27" value="" style="endArrow=classic;html=1;rounded=0;" edge="1" parent="1">
          <mxGeometry width="50" height="50" relative="1" as="geometry">
            <mxPoint x="620" y="1080" as="sourcePoint" />
            <mxPoint x="680" y="1080" as="targetPoint" />
          </mxGeometry>
        </mxCell>
        <mxCell id="eFwFBlM1vYyjbtdmFEcN-28" value="" style="rounded=0;whiteSpace=wrap;html=1;" vertex="1" parent="1">
          <mxGeometry x="680" y="1050" width="120" height="60" as="geometry" />
        </mxCell>
        <mxCell id="eFwFBlM1vYyjbtdmFEcN-29" value="BCNN =(c.d/UCLN)" style="text;html=1;strokeColor=none;fillColor=none;align=center;verticalAlign=middle;whiteSpace=wrap;rounded=0;" vertex="1" parent="1">
          <mxGeometry x="700" y="1065" width="80" height="35" as="geometry" />
        </mxCell>
        <mxCell id="eFwFBlM1vYyjbtdmFEcN-30" value="" style="endArrow=classic;html=1;rounded=0;" edge="1" parent="1">
          <mxGeometry width="50" height="50" relative="1" as="geometry">
            <mxPoint x="740" y="1110" as="sourcePoint" />
            <mxPoint x="740" y="1240" as="targetPoint" />
          </mxGeometry>
        </mxCell>
        <mxCell id="eFwFBlM1vYyjbtdmFEcN-31" value="" style="ellipse;whiteSpace=wrap;html=1;" vertex="1" parent="1">
          <mxGeometry x="680" y="1245" width="120" height="80" as="geometry" />
        </mxCell>
        <mxCell id="eFwFBlM1vYyjbtdmFEcN-32" value="End" style="text;html=1;strokeColor=none;fillColor=none;align=center;verticalAlign=middle;whiteSpace=wrap;rounded=0;" vertex="1" parent="1">
          <mxGeometry x="710" y="1270" width="60" height="30" as="geometry" />
        </mxCell>
        <mxCell id="eFwFBlM1vYyjbtdmFEcN-33" value="a=b" style="text;html=1;strokeColor=none;fillColor=none;align=center;verticalAlign=middle;whiteSpace=wrap;rounded=0;" vertex="1" parent="1">
          <mxGeometry x="354" y="1065" width="60" height="30" as="geometry" />
        </mxCell>
        <mxCell id="eFwFBlM1vYyjbtdmFEcN-34" value="a&amp;gt;b" style="text;html=1;strokeColor=none;fillColor=none;align=center;verticalAlign=middle;whiteSpace=wrap;rounded=0;" vertex="1" parent="1">
          <mxGeometry x="360" y="1205" width="60" height="30" as="geometry" />
        </mxCell>
        <mxCell id="eFwFBlM1vYyjbtdmFEcN-35" value="False" style="text;html=1;strokeColor=none;fillColor=none;align=center;verticalAlign=middle;whiteSpace=wrap;rounded=0;" vertex="1" parent="1">
          <mxGeometry x="380" y="1130" width="60" height="30" as="geometry" />
        </mxCell>
        <mxCell id="eFwFBlM1vYyjbtdmFEcN-36" value="False" style="text;html=1;strokeColor=none;fillColor=none;align=center;verticalAlign=middle;whiteSpace=wrap;rounded=0;" vertex="1" parent="1">
          <mxGeometry x="380" y="1260" width="60" height="30" as="geometry" />
        </mxCell>
        <mxCell id="eFwFBlM1vYyjbtdmFEcN-39" value="" style="endArrow=none;html=1;rounded=0;" edge="1" parent="1">
          <mxGeometry width="50" height="50" relative="1" as="geometry">
            <mxPoint x="400" y="1480" as="sourcePoint" />
            <mxPoint x="400" y="1370" as="targetPoint" />
          </mxGeometry>
        </mxCell>
        <mxCell id="eFwFBlM1vYyjbtdmFEcN-40" value="" style="endArrow=none;html=1;rounded=0;" edge="1" parent="1">
          <mxGeometry width="50" height="50" relative="1" as="geometry">
            <mxPoint x="200" y="1480" as="sourcePoint" />
            <mxPoint x="400" y="1480" as="targetPoint" />
          </mxGeometry>
        </mxCell>
        <mxCell id="eFwFBlM1vYyjbtdmFEcN-41" value="" style="endArrow=none;html=1;rounded=0;" edge="1" parent="1">
          <mxGeometry width="50" height="50" relative="1" as="geometry">
            <mxPoint x="200" y="1480" as="sourcePoint" />
            <mxPoint x="200" y="880" as="targetPoint" />
          </mxGeometry>
        </mxCell>
        <mxCell id="eFwFBlM1vYyjbtdmFEcN-42" value="" style="endArrow=classic;html=1;rounded=0;" edge="1" parent="1">
          <mxGeometry width="50" height="50" relative="1" as="geometry">
            <mxPoint x="200" y="890" as="sourcePoint" />
            <mxPoint x="390" y="890" as="targetPoint" />
          </mxGeometry>
        </mxCell>
        <mxCell id="eFwFBlM1vYyjbtdmFEcN-43" value="" style="endArrow=none;html=1;rounded=0;" edge="1" parent="1">
          <mxGeometry width="50" height="50" relative="1" as="geometry">
            <mxPoint x="560" y="1510" as="sourcePoint" />
            <mxPoint x="560" y="1250" as="targetPoint" />
          </mxGeometry>
        </mxCell>
        <mxCell id="eFwFBlM1vYyjbtdmFEcN-44" value="" style="endArrow=none;html=1;rounded=0;" edge="1" parent="1">
          <mxGeometry width="50" height="50" relative="1" as="geometry">
            <mxPoint x="160" y="1510" as="sourcePoint" />
            <mxPoint x="560" y="1510" as="targetPoint" />
          </mxGeometry>
        </mxCell>
        <mxCell id="eFwFBlM1vYyjbtdmFEcN-45" value="" style="endArrow=none;html=1;rounded=0;" edge="1" parent="1">
          <mxGeometry width="50" height="50" relative="1" as="geometry">
            <mxPoint x="160" y="1510" as="sourcePoint" />
            <mxPoint x="160" y="870" as="targetPoint" />
          </mxGeometry>
        </mxCell>
        <mxCell id="eFwFBlM1vYyjbtdmFEcN-46" value="" style="endArrow=classic;html=1;rounded=0;" edge="1" parent="1">
          <mxGeometry width="50" height="50" relative="1" as="geometry">
            <mxPoint x="160" y="870" as="sourcePoint" />
            <mxPoint x="390" y="870" as="targetPoint" />
          </mxGeometry>
        </mxCell>
      </root>
    </mxGraphModel>
  </diagram>
</mxfile>
